<?xml version="1.0" standalone="yes"?>

<svg version="1.1" viewBox="0.0 0.0 960.0 720.0" fill="none" stroke="none" stroke-linecap="square" stroke-miterlimit="10" xmlns="http://www.w3.org/2000/svg" xmlns:xlink="http://www.w3.org/1999/xlink"><clipPath id="p.0"><path d="m0 0l960.0 0l0 720.0l-960.0 0l0 -720.0z" clip-rule="nonzero"></path></clipPath><g clip-path="url(#p.0)"><path fill="#000000" fill-opacity="0.0" d="m0 0l960.0 0l0 720.0l-960.0 0z" fill-rule="nonzero"></path><path fill="#666666" d="m71.63386 137.39633l815.11816 0l0 227.21259l-815.11816 0z" fill-rule="nonzero"></path><path fill="#000000" fill-opacity="0.0" d="m0.8070866 105.02887l960.00006 0l0 48.0l-960.00006 0z" fill-rule="nonzero"></path><path fill="#ffffff" d="m173.86961 314.99762q-2.140625 2.15625 -5.5625 2.15625q-3.421875 0 -5.5625 -2.25q-0.6875 -0.578125 -1.265625 -1.859375l-43.359375 -94.421875q-0.59375 -1.375 -0.59375 -3.03125q0 -3.21875 2.296875 -5.515625q2.296875 -2.296875 5.515625 -2.296875q3.21875 0 5.5625 2.25q0.78125 0.78125 1.46875 2.046875l35.9375 78.515625l35.9375 -78.515625q0.6875 -1.265625 1.5625 -2.046875q2.25 -2.25 5.46875 -2.25q3.21875 0 5.515625 2.296875q2.296875 2.296875 2.296875 5.515625q0 1.65625 -0.578125 3.03125l-43.359375 94.421875q-0.59375 1.28125 -1.28125 1.953125zm224.90627 -52.53125q0 22.65625 -16.015625 38.671875q-16.015625 16.015625 -38.671875 16.015625q-22.65625 0 -38.671875 -16.015625q-16.015625 -16.015625 -16.015625 -38.671875q0 -22.65625 16.015625 -38.671875q16.015625 -16.015625 38.671875 -16.015625q22.65625 0 38.671875 16.015625q16.015625 16.015625 16.015625 38.671875zm-54.6875 -39.0625q-16.203125 0 -27.640625 11.421875q-11.421875 11.421875 -11.421875 27.640625q0 16.203125 11.421875 27.640625q11.4375 11.421875 27.640625 11.421875q16.21875 0 27.640625 -11.421875q11.421875 -11.4375 11.421875 -27.640625q0 -16.21875 -11.421875 -27.640625q-11.421875 -11.421875 -27.640625 -11.421875zm150.39062 -39.0625q0 4.0 -2.890625 6.890625q-2.875 2.875 -6.875 2.875q-4.0 0 -6.890625 -2.875q-2.875 -2.890625 -2.875 -6.890625q0 -4.0 2.875 -6.875q2.890625 -2.890625 6.890625 -2.890625q4.0 0 6.875 2.890625q2.890625 2.875 2.890625 6.875zm-17.578125 31.25q0 -3.21875 2.296875 -5.515625q2.296875 -2.296875 5.515625 -2.296875q3.21875 0 5.515625 2.296875q2.296875 2.296875 2.296875 5.515625l0 93.75q0 3.21875 -2.296875 5.515625q-2.296875 2.296875 -5.515625 2.296875q-3.21875 0 -5.515625 -2.296875q-2.296875 -2.296875 -2.296875 -5.515625l0 -93.75zm178.71869 74.796875q3.21875 0 5.515625 2.296875q2.296875 2.296875 2.296875 5.515625q0 3.234375 -2.453125 5.765625q-15.125 13.1875 -35.640625 13.1875q-22.65625 0 -38.671875 -16.015625q-16.015625 -16.015625 -16.015625 -38.671875q0 -22.65625 16.015625 -38.671875q16.015625 -16.015625 38.671875 -16.015625q20.515625 0 35.640625 13.1875q2.734375 2.4375 2.734375 6.046875q0 3.21875 -2.296875 5.515625q-2.28125 2.296875 -5.515625 2.296875q-2.828125 0 -4.96875 -1.75q-10.9375 -9.671875 -25.59375 -9.671875q-16.203125 0 -27.640625 11.421875q-11.421875 11.421875 -11.421875 27.640625q0 16.203125 11.421875 27.640625q11.4375 11.421875 27.640625 11.421875q14.65625 0 25.484375 -9.578125q2.0625 -1.5625 4.796875 -1.5625zm172.15625 -35.734375q-2.140625 -11.234375 -10.734375 -19.828125q-11.421875 -11.421875 -27.640625 -11.421875q-16.203125 0 -27.640625 11.421875q-8.59375 8.59375 -10.734375 19.828125l76.75 0zm-8.296875 35.9375q3.21875 0 5.515625 2.296875q2.296875 2.296875 2.296875 5.515625q0 3.21875 -2.25 5.5625q-15.125 13.1875 -35.640625 13.1875q-22.65625 0 -38.671875 -16.015625q-16.015625 -16.015625 -16.015625 -38.671875q0 -22.65625 16.015625 -38.671875q16.015625 -16.015625 38.671875 -16.015625q22.65625 0 38.671875 16.015625q16.015625 16.015625 16.015625 38.671875q0 3.21875 -2.296875 5.515625q-2.296875 2.296875 -5.515625 2.296875l-85.25 0q2.140625 11.234375 10.734375 19.828125q11.4375 11.421875 27.640625 11.421875q14.65625 0 25.203125 -9.28125q2.140625 -1.65625 4.875 -1.65625z" fill-rule="nonzero"></path><path fill="#000000" fill-opacity="0.0" d="m-0.8070866 372.4777l960.0 0l0 48.0l-960.0 0z" fill-rule="nonzero"></path><path fill="#666666" d="m84.2867 418.99332q-0.40625 0.390625 -1.03125 0.390625q-0.640625 0 -1.03125 -0.421875q-0.125 -0.109375 -0.234375 -0.34375l-8.03125 -17.46875q-0.09375 -0.25 -0.09375 -0.5625q0 -0.59375 0.421875 -1.015625q0.421875 -0.421875 1.015625 -0.421875q0.59375 0 1.03125 0.421875q0.140625 0.140625 0.265625 0.375l6.65625 14.515625l6.640625 -14.515625q0.125 -0.234375 0.296875 -0.375q0.40625 -0.421875 1.015625 -0.421875q0.59375 0 1.015625 0.421875q0.421875 0.421875 0.421875 1.015625q0 0.3125 -0.109375 0.5625l-8.015625 17.46875q-0.109375 0.234375 -0.234375 0.375zm31.684448 -9.734375q0 4.203125 -2.96875 7.171875q-2.96875 2.953125 -7.15625 2.953125q-4.1875 0 -7.15625 -2.953125q-2.953125 -2.96875 -2.953125 -7.171875q0 -4.1875 2.953125 -7.140625q2.96875 -2.96875 7.15625 -2.96875q4.1875 0 7.15625 2.96875q2.96875 2.953125 2.96875 7.140625zm-10.125 -7.21875q-3.0 0 -5.109375 2.125q-2.109375 2.109375 -2.109375 5.09375q0 3.0 2.109375 5.125q2.109375 2.109375 5.109375 2.109375q3.0 0 5.109375 -2.109375q2.125 -2.125 2.125 -5.125q0 -2.984375 -2.125 -5.09375q-2.109375 -2.125 -5.109375 -2.125zm17.908203 -7.234375q0 0.75 -0.53125 1.28125q-0.53125 0.53125 -1.265625 0.53125q-0.75 0 -1.28125 -0.53125q-0.53125 -0.53125 -0.53125 -1.28125q0 -0.734375 0.53125 -1.265625q0.53125 -0.53125 1.28125 -0.53125q0.734375 0 1.265625 0.53125q0.53125 0.53125 0.53125 1.265625zm-3.25 5.78125q0 -0.59375 0.421875 -1.015625q0.421875 -0.421875 1.03125 -0.421875q0.59375 0 1.015625 0.421875q0.421875 0.421875 0.421875 1.015625l0 17.34375q0 0.609375 -0.421875 1.03125q-0.421875 0.421875 -1.015625 0.421875q-0.609375 0 -1.03125 -0.421875q-0.421875 -0.421875 -0.421875 -1.03125l0 -17.34375zm23.014404 13.84375q0.609375 0 1.03125 0.4375q0.421875 0.421875 0.421875 1.015625q0 0.59375 -0.453125 1.0625q-2.796875 2.4375 -6.59375 2.4375q-4.1875 0 -7.15625 -2.953125q-2.953125 -2.96875 -2.953125 -7.171875q0 -4.1875 2.953125 -7.140625q2.96875 -2.96875 7.15625 -2.96875q3.796875 0 6.59375 2.4375q0.5 0.453125 0.5 1.125q0 0.59375 -0.421875 1.015625q-0.421875 0.421875 -1.015625 0.421875q-0.53125 0 -0.921875 -0.328125q-2.03125 -1.78125 -4.734375 -1.78125q-3.0 0 -5.109375 2.125q-2.109375 2.109375 -2.109375 5.09375q0 3.0 2.109375 5.125q2.109375 2.109375 5.109375 2.109375q2.703125 0 4.71875 -1.765625q0.375 -0.296875 0.875 -0.296875zm21.913818 -6.609375q-0.390625 -2.078125 -1.984375 -3.671875q-2.109375 -2.109375 -5.109375 -2.109375q-3.0 0 -5.109375 2.109375q-1.59375 1.59375 -1.984375 3.671875l14.1875 0zm-1.53125 6.640625q0.59375 0 1.015625 0.4375q0.4375 0.421875 0.4375 1.015625q0 0.59375 -0.421875 1.03125q-2.796875 2.4375 -6.59375 2.4375q-4.1875 0 -7.15625 -2.953125q-2.953125 -2.96875 -2.953125 -7.171875q0 -4.1875 2.953125 -7.140625q2.96875 -2.96875 7.15625 -2.96875q4.1875 0 7.15625 2.96875q2.96875 2.953125 2.96875 7.140625q0 0.609375 -0.4375 1.03125q-0.421875 0.421875 -1.015625 0.421875l-15.765625 0q0.390625 2.078125 1.984375 3.671875q2.109375 2.109375 5.109375 2.109375q2.703125 0 4.65625 -1.71875q0.40625 -0.3125 0.90625 -0.3125zm48.306396 -5.203125q0 4.203125 -2.96875 7.171875q-2.96875 2.953125 -7.15625 2.953125q-4.1875 0 -7.15625 -2.953125q-2.953125 -2.96875 -2.953125 -7.171875q0 -4.1875 2.953125 -7.140625q2.96875 -2.96875 7.15625 -2.96875q4.1875 0 7.15625 2.96875q2.96875 2.953125 2.96875 7.140625zm-10.125 -7.21875q-3.0 0 -5.109375 2.125q-2.109375 2.109375 -2.109375 5.09375q0 3.0 2.109375 5.125q2.109375 2.109375 5.109375 2.109375q3.0 0 5.109375 -2.109375q2.125 -2.125 2.125 -5.125q0 -2.984375 -2.125 -5.09375q-2.109375 -2.125 -5.109375 -2.125zm16.111328 7.21875q0 3.0 2.109375 5.125q2.109375 2.109375 5.109375 2.109375q3.0 0 5.109375 -2.109375q2.125 -2.125 2.125 -5.125q0 -2.984375 -2.125 -5.09375q-2.109375 -2.125 -5.109375 -2.125q-3.0 0 -5.109375 2.125q-2.109375 2.109375 -2.109375 5.09375zm0 17.359375q0 0.59375 -0.4375 1.015625q-0.421875 0.421875 -1.015625 0.421875q-0.59375 0 -1.015625 -0.421875q-0.421875 -0.421875 -0.421875 -1.015625l0 -17.359375q0 -4.1875 2.953125 -7.140625q2.96875 -2.96875 7.15625 -2.96875q4.1875 0 7.15625 2.96875q2.96875 2.953125 2.96875 7.140625q0 4.203125 -2.96875 7.171875q-2.96875 2.953125 -7.15625 2.953125q-4.1875 0 -7.15625 -2.96875q-0.03125 -0.03125 -0.0625 -0.0625l0 10.265625zm37.64258 -18.796875q-0.390625 -2.078125 -1.984375 -3.671875q-2.109375 -2.109375 -5.109375 -2.109375q-3.0 0 -5.109375 2.109375q-1.59375 1.59375 -1.984375 3.671875l14.1875 0zm-1.53125 6.640625q0.59375 0 1.015625 0.4375q0.4375 0.421875 0.4375 1.015625q0 0.59375 -0.421875 1.03125q-2.796875 2.4375 -6.59375 2.4375q-4.1875 0 -7.15625 -2.953125q-2.953125 -2.96875 -2.953125 -7.171875q0 -4.1875 2.953125 -7.140625q2.96875 -2.96875 7.15625 -2.96875q4.1875 0 7.15625 2.96875q2.9687347 2.953125 2.9687347 7.140625q0 0.609375 -0.4375 1.03125q-0.421875 0.421875 -1.015625 0.421875l-15.76561 0q0.390625 2.078125 1.984375 3.671875q2.109375 2.109375 5.109375 2.109375q2.703125 0 4.65625 -1.71875q0.40625 -0.3125 0.90625 -0.3125zm7.658188 -13.875q0 -0.59375 0.421875 -1.015625q0.421875 -0.421875 1.015625 -0.421875q0.59375 0 1.015625 0.421875q0.4375 0.421875 0.4375 1.015625l0 1.59375q3.03125 -3.03125 7.21875 -3.03125q2.109375 0 3.890625 0.71875q0.3125 0.125 0.59375 0.390625q0.40625 0.421875 0.40625 1.015625q0 0.609375 -0.421875 1.03125q-0.421875 0.421875 -1.015625 0.421875q-0.34375 0 -0.640625 -0.140625q-1.28125 -0.546875 -2.8125 -0.546875q-3.0 0 -5.109375 2.125q-2.109375 2.109375 -2.109375 5.09375l0 8.671875q0 0.609375 -0.4375 1.03125q-0.421875 0.421875 -1.015625 0.421875q-0.59375 0 -1.015625 -0.421875q-0.421875 -0.421875 -0.421875 -1.03125l0 -17.34375zm27.606934 1.453125q-3.0 0 -5.109375 2.125q-2.109375 2.109375 -2.109375 5.09375q0 3.0 2.109375 5.125q2.109375 2.109375 5.109375 2.109375q3.0 0 5.109375 -2.109375q2.125 -2.125 2.125 -5.125q0 -2.984375 -2.125 -5.09375q-2.109375 -2.125 -5.109375 -2.125zm7.234375 14.3125q-3.046875 3.03125 -7.234375 3.03125q-4.1875 0 -7.15625 -2.953125q-2.953125 -2.96875 -2.953125 -7.171875q0 -4.1875 2.953125 -7.140625q2.96875 -2.96875 7.15625 -2.96875q4.1875 0 7.15625 2.96875q2.96875 2.953125 2.96875 7.140625l0 8.671875q0 0.609375 -0.4375 1.03125q-0.421875 0.421875 -1.015625 0.421875q-0.59375 0 -1.015625 -0.421875q-0.421875 -0.421875 -0.421875 -1.03125l0 -1.578125zm16.095703 0.140625q0.59375 0 1.015625 0.421875q0.4375 0.421875 0.4375 1.015625q0 0.609375 -0.4375 1.03125q-0.421875 0.421875 -1.015625 0.421875q-7.21875 0 -7.21875 -7.234375l0 -10.109375l-1.453125 0q-0.59375 0 -1.015625 -0.421875q-0.421875 -0.421875 -0.421875 -1.03125q0 -0.59375 0.421875 -1.015625q0.421875 -0.421875 1.015625 -0.421875l1.453125 0l0 -7.234375q0 -0.59375 0.421875 -1.015625q0.421875 -0.421875 1.015625 -0.421875q0.59375 0 1.015625 0.421875q0.4375 0.421875 0.4375 1.015625l0 7.234375l2.90625 0q0.59375 0 1.015625 0.421875q0.421875 0.421875 0.421875 1.015625q0 0.609375 -0.421875 1.03125q-0.421875 0.421875 -1.015625 0.421875l-2.90625 0l0 10.109375q0 4.34375 4.328125 4.34375zm21.675049 -8.671875q-0.390625 -2.078125 -1.984375 -3.671875q-2.109375 -2.109375 -5.109375 -2.109375q-3.0 0 -5.109375 2.109375q-1.59375 1.59375 -1.984375 3.671875l14.1875 0zm-1.53125 6.640625q0.59375 0 1.015625 0.4375q0.4375 0.421875 0.4375 1.015625q0 0.59375 -0.421875 1.03125q-2.796875 2.4375 -6.59375 2.4375q-4.1875 0 -7.15625 -2.953125q-2.953125 -2.96875 -2.953125 -7.171875q0 -4.1875 2.953125 -7.140625q2.96875 -2.96875 7.15625 -2.96875q4.1875 0 7.15625 2.96875q2.96875 2.953125 2.96875 7.140625q0 0.609375 -0.4375 1.03125q-0.421875 0.421875 -1.015625 0.421875l-15.765625 0q0.390625 2.078125 1.984375 3.671875q2.109375 2.109375 5.109375 2.109375q2.703125 0 4.65625 -1.71875q0.40625 -0.3125 0.90625 -0.3125zm25.001953 -5.203125q0 -2.984375 -2.125 -5.09375q-2.109375 -2.125 -5.109375 -2.125q-3.0 0 -5.109375 2.125q-2.109375 2.109375 -2.109375 5.09375q0 3.0 2.109375 5.125q2.109375 2.109375 5.109375 2.109375q3.0 0 5.109375 -2.109375q2.125 -2.125 2.125 -5.125zm0 -17.375q0 -0.59375 0.421875 -1.015625q0.421875 -0.421875 1.015625 -0.421875q0.59375 0 1.015625 0.421875q0.4375 0.421875 0.4375 1.015625l0 17.375q0 4.203125 -2.96875 7.171875q-2.96875 2.953125 -7.15625 2.953125q-4.1875 0 -7.15625 -2.953125q-2.953125 -2.96875 -2.953125 -7.171875q0 -4.1875 2.953125 -7.140625q2.96875 -2.96875 7.15625 -2.96875q4.1875 0 7.15625 2.96875q0.03125 0.03125 0.078125 0.0625l0 -10.296875zm31.087646 2.921875q0 0.75 -0.53125 1.28125q-0.53125 0.53125 -1.265625 0.53125q-0.75 0 -1.28125 -0.53125q-0.53125 -0.53125 -0.53125 -1.28125q0 -0.734375 0.53125 -1.265625q0.53125 -0.53125 1.28125 -0.53125q0.734375 0 1.265625 0.53125q0.53125 0.53125 0.53125 1.265625zm-3.25 5.78125q0 -0.59375 0.421875 -1.015625q0.421875 -0.421875 1.03125 -0.421875q0.59375 0 1.015625 0.421875q0.421875 0.421875 0.421875 1.015625l0 17.34375q0 0.609375 -0.421875 1.03125q-0.421875 0.421875 -1.015625 0.421875q-0.609375 0 -1.03125 -0.421875q-0.421875 -0.421875 -0.421875 -1.03125l0 -17.34375zm7.3112793 0q0 -0.59375 0.421875 -1.015625q0.421875 -0.421875 1.015625 -0.421875q0.59375 0 1.015625 0.421875q0.4375 0.421875 0.4375 1.015625l0 1.1875q2.703125 -2.625 6.5 -2.625q3.875 0 6.625 2.765625q2.765625 2.75 2.765625 6.625l0 9.390625q0 0.609375 -0.421875 1.03125q-0.421875 0.421875 -1.015625 0.421875q-0.609375 0 -1.03125 -0.421875q-0.421875 -0.421875 -0.421875 -1.03125l0 -9.390625q0 -2.6875 -1.90625 -4.59375q-1.90625 -1.90625 -4.59375 -1.90625q-2.703125 0 -4.609375 1.90625q-1.890625 1.90625 -1.890625 4.59375l0 9.390625q0 0.609375 -0.4375 1.03125q-0.421875 0.421875 -1.015625 0.421875q-0.59375 0 -1.015625 -0.421875q-0.421875 -0.421875 -0.421875 -1.03125l0 -17.34375zm31.981323 15.90625q0.59375 0 1.015625 0.421875q0.4375 0.421875 0.4375 1.015625q0 0.609375 -0.4375 1.03125q-0.421875 0.421875 -1.015625 0.421875q-7.21875 0 -7.21875 -7.234375l0 -10.109375l-1.453125 0q-0.59375 0 -1.015625 -0.421875q-0.421875 -0.421875 -0.421875 -1.03125q0 -0.59375 0.421875 -1.015625q0.421875 -0.421875 1.015625 -0.421875l1.453125 0l0 -7.234375q0 -0.59375 0.421875 -1.015625q0.421875 -0.421875 1.015625 -0.421875q0.59375 0 1.015625 0.421875q0.4375 0.421875 0.4375 1.015625l0 7.234375l2.90625 0q0.59375 0 1.015625 0.421875q0.421875 0.421875 0.421875 1.015625q0 0.609375 -0.421875 1.03125q-0.421875 0.421875 -1.015625 0.421875l-2.90625 0l0 10.109375q0 4.34375 4.328125 4.34375zm21.675049 -8.671875q-0.390625 -2.078125 -1.984375 -3.671875q-2.109375 -2.109375 -5.109375 -2.109375q-3.0 0 -5.109375 2.109375q-1.59375 1.59375 -1.984375 3.671875l14.1875 0zm-1.53125 6.640625q0.59375 0 1.015625 0.4375q0.4375 0.421875 0.4375 1.015625q0 0.59375 -0.421875 1.03125q-2.796875 2.4375 -6.59375 2.4375q-4.1875 0 -7.15625 -2.953125q-2.953125 -2.96875 -2.953125 -7.171875q0 -4.1875 2.953125 -7.140625q2.96875 -2.96875 7.15625 -2.96875q4.1875 0 7.15625 2.96875q2.96875 2.953125 2.96875 7.140625q0 0.609375 -0.4375 1.03125q-0.421875 0.421875 -1.015625 0.421875l-15.765625 0q0.390625 2.078125 1.984375 3.671875q2.109375 2.109375 5.109375 2.109375q2.703125 0 4.65625 -1.71875q0.40625 -0.3125 0.90625 -0.3125zm7.658203 -13.875q0 -0.59375 0.421875 -1.015625q0.421875 -0.421875 1.015625 -0.421875q0.59375 0 1.015625 0.421875q0.4375 0.421875 0.4375 1.015625l0 1.59375q3.03125 -3.03125 7.21875 -3.03125q2.109375 0 3.890625 0.71875q0.3125 0.125 0.59375 0.390625q0.40625 0.421875 0.40625 1.015625q0 0.609375 -0.421875 1.03125q-0.421875 0.421875 -1.015625 0.421875q-0.34375 0 -0.640625 -0.140625q-1.28125 -0.546875 -2.8125 -0.546875q-3.0 0 -5.109375 2.125q-2.109375 2.109375 -2.109375 5.09375l0 8.671875q0 0.609375 -0.4375 1.03125q-0.421875 0.421875 -1.015625 0.421875q-0.59375 0 -1.015625 -0.421875q-0.421875 -0.421875 -0.421875 -1.03125l0 -17.34375zm20.388184 8.671875q0 3.0 2.109375 5.125q2.109375 2.109375 5.109375 2.109375q3.0 0 5.109375 -2.109375q2.125 -2.125 2.125 -5.125q0 -2.984375 -2.125 -5.09375q-2.109375 -2.125 -5.109375 -2.125q-3.0 0 -5.109375 2.125q-2.109375 2.109375 -2.109375 5.09375zm0 17.359375q0 0.59375 -0.4375 1.015625q-0.421875 0.421875 -1.015625 0.421875q-0.59375 0 -1.015625 -0.421875q-0.421875 -0.421875 -0.421875 -1.015625l0 -17.359375q0 -4.1875 2.953125 -7.140625q2.96875 -2.96875 7.15625 -2.96875q4.1875 0 7.15625 2.96875q2.96875 2.953125 2.96875 7.140625q0 4.203125 -2.96875 7.171875q-2.96875 2.953125 -7.15625 2.953125q-4.1875 0 -7.15625 -2.96875q-0.03125 -0.03125 -0.0625 -0.0625l0 10.265625zm40.67383 -17.359375q0 4.203125 -2.96875 7.171875q-2.96875 2.953125 -7.15625 2.953125q-4.1875 0 -7.15625 -2.953125q-2.953125 -2.96875 -2.953125 -7.171875q0 -4.1875 2.953125 -7.140625q2.96875 -2.96875 7.15625 -2.96875q4.1875 0 7.15625 2.96875q2.96875 2.953125 2.96875 7.140625zm-10.125 -7.21875q-3.0 0 -5.109375 2.125q-2.109375 2.109375 -2.109375 5.09375q0 3.0 2.109375 5.125q2.109375 2.109375 5.109375 2.109375q3.0 0 5.109375 -2.109375q2.125 -2.125 2.125 -5.125q0 -2.984375 -2.125 -5.09375q-2.109375 -2.125 -5.109375 -2.125zm13.220703 -10.125q0 -0.59375 0.421875 -1.015625q0.421875 -0.421875 1.015625 -0.421875q0.59375 0 1.015625 0.421875q0.4375 0.421875 0.4375 1.015625l0 24.578125l1.4375 0q0.59375 0 1.015625 0.421875q0.4375 0.421875 0.4375 1.015625q0 0.609375 -0.4375 1.03125q-0.421875 0.421875 -1.015625 0.421875l-2.890625 0q-0.59375 0 -1.015625 -0.421875q-0.421875 -0.421875 -0.421875 -1.03125l0 -26.015625zm18.858154 10.125q-3.0 0 -5.109375 2.125q-2.109375 2.109375 -2.109375 5.09375q0 3.0 2.109375 5.125q2.109375 2.109375 5.109375 2.109375q3.0 0 5.109375 -2.109375q2.125 -2.125 2.125 -5.125q0 -2.984375 -2.125 -5.09375q-2.109375 -2.125 -5.109375 -2.125zm7.234375 14.3125q-3.046875 3.03125 -7.234375 3.03125q-4.1875 0 -7.15625 -2.953125q-2.953125 -2.96875 -2.953125 -7.171875q0 -4.1875 2.953125 -7.140625q2.96875 -2.96875 7.15625 -2.96875q4.1875 0 7.15625 2.96875q2.96875 2.953125 2.96875 7.140625l0 8.671875q0 0.609375 -0.4375 1.03125q-0.421875 0.421875 -1.015625 0.421875q-0.59375 0 -1.015625 -0.421875q-0.421875 -0.421875 -0.421875 -1.03125l0 -1.578125zm16.095703 0.140625q0.59375 0 1.015625 0.421875q0.4375 0.421875 0.4375 1.015625q0 0.609375 -0.4375 1.03125q-0.421875 0.421875 -1.015625 0.421875q-7.21875 0 -7.21875 -7.234375l0 -10.109375l-1.453125 0q-0.59375 0 -1.015625 -0.421875q-0.421875 -0.421875 -0.421875 -1.03125q0 -0.59375 0.421875 -1.015625q0.421875 -0.421875 1.015625 -0.421875l1.453125 0l0 -7.234375q0 -0.59375 0.421875 -1.015625q0.421875 -0.421875 1.015625 -0.421875q0.59375 0 1.015625 0.421875q0.4375 0.421875 0.4375 1.015625l0 7.234375l2.90625 0q0.59375 0 1.015625 0.421875q0.421875 0.421875 0.421875 1.015625q0 0.609375 -0.421875 1.03125q-0.421875 0.421875 -1.015625 0.421875l-2.90625 0l0 10.109375q0 4.34375 4.328125 4.34375zm21.675049 -8.671875q-0.390625 -2.078125 -1.984375 -3.671875q-2.109375 -2.109375 -5.109375 -2.109375q-3.0 0 -5.109375 2.109375q-1.59375 1.59375 -1.984375 3.671875l14.1875 0zm-1.53125 6.640625q0.59375 0 1.015625 0.4375q0.4375 0.421875 0.4375 1.015625q0 0.59375 -0.421875 1.03125q-2.796875 2.4375 -6.59375 2.4375q-4.1875 0 -7.15625 -2.953125q-2.953125 -2.96875 -2.953125 -7.171875q0 -4.1875 2.953125 -7.140625q2.96875 -2.96875 7.15625 -2.96875q4.1875 0 7.15625 2.96875q2.96875 2.953125 2.96875 7.140625q0 0.609375 -0.4375 1.03125q-0.421875 0.421875 -1.015625 0.421875l-15.765625 0q0.390625 2.078125 1.984375 3.671875q2.109375 2.109375 5.109375 2.109375q2.703125 0 4.65625 -1.71875q0.40625 -0.3125 0.90625 -0.3125zm25.001953 -5.203125q0 -2.984375 -2.125 -5.09375q-2.109375 -2.125 -5.109375 -2.125q-3.0 0 -5.109375 2.125q-2.109375 2.109375 -2.109375 5.09375q0 3.0 2.109375 5.125q2.109375 2.109375 5.109375 2.109375q3.0 0 5.109375 -2.109375q2.125 -2.125 2.125 -5.125zm0 -17.375q0 -0.59375 0.421875 -1.015625q0.421875 -0.421875 1.015625 -0.421875q0.59375 0 1.015625 0.421875q0.4375 0.421875 0.4375 1.015625l0 17.375q0 4.203125 -2.96875 7.171875q-2.96875 2.953125 -7.15625 2.953125q-4.1875 0 -7.15625 -2.953125q-2.953125 -2.96875 -2.953125 -7.171875q0 -4.1875 2.953125 -7.140625q2.96875 -2.96875 7.15625 -2.96875q4.1875 0 7.15625 2.96875q0.03125 0.03125 0.078125 0.0625l0 -10.296875zm42.10327 22.546875q0.609375 0 1.03125 0.4375q0.421875 0.421875 0.421875 1.015625q0 0.59375 -0.453125 1.0625q-2.796875 2.4375 -6.59375 2.4375q-4.1875 0 -7.15625 -2.953125q-2.953125 -2.96875 -2.953125 -7.171875q0 -4.1875 2.953125 -7.140625q2.96875 -2.96875 7.15625 -2.96875q3.796875 0 6.59375 2.4375q0.5 0.453125 0.5 1.125q0 0.59375 -0.421875 1.015625q-0.421875 0.421875 -1.015625 0.421875q-0.53125 0 -0.921875 -0.328125q-2.03125 -1.78125 -4.734375 -1.78125q-3.0 0 -5.109375 2.125q-2.109375 2.109375 -2.109375 5.09375q0 3.0 2.109375 5.125q2.109375 2.109375 5.109375 2.109375q2.703125 0 4.71875 -1.765625q0.375 -0.296875 0.875 -0.296875zm24.945068 -5.171875q0 4.203125 -2.96875 7.171875q-2.96875 2.953125 -7.15625 2.953125q-4.1875 0 -7.15625 -2.953125q-2.953125 -2.96875 -2.953125 -7.171875q0 -4.1875 2.953125 -7.140625q2.96875 -2.96875 7.15625 -2.96875q4.1875 0 7.15625 2.96875q2.96875 2.953125 2.96875 7.140625zm-10.125 -7.21875q-3.0 0 -5.109375 2.125q-2.109375 2.109375 -2.109375 5.09375q0 3.0 2.109375 5.125q2.109375 2.109375 5.109375 2.109375q3.0 0 5.109375 -2.109375q2.125 -2.125 2.125 -5.125q0 -2.984375 -2.125 -5.09375q-2.109375 -2.125 -5.109375 -2.125zm30.564453 7.21875q0 -2.984375 -2.125 -5.09375q-2.109375 -2.125 -5.109375 -2.125q-3.0 0 -5.109375 2.125q-2.109375 2.109375 -2.109375 5.09375q0 3.0 2.109375 5.125q2.109375 2.109375 5.109375 2.109375q3.0 0 5.109375 -2.109375q2.125 -2.125 2.125 -5.125zm0 -17.375q0 -0.59375 0.421875 -1.015625q0.421875 -0.421875 1.015625 -0.421875q0.59375 0 1.015625 0.421875q0.4375 0.421875 0.4375 1.015625l0 17.375q0 4.203125 -2.96875 7.171875q-2.96875 2.953125 -7.15625 2.953125q-4.1875 0 -7.15625 -2.953125q-2.953125 -2.96875 -2.953125 -7.171875q0 -4.1875 2.953125 -7.140625q2.96875 -2.96875 7.15625 -2.96875q4.1875 0 7.15625 2.96875q0.03125 0.03125 0.078125 0.0625l0 -10.296875zm10.673828 2.921875q0 0.75 -0.53125 1.28125q-0.53125 0.53125 -1.265625 0.53125q-0.75 0 -1.28125 -0.53125q-0.53125 -0.53125 -0.53125 -1.28125q0 -0.734375 0.53125 -1.265625q0.53125 -0.53125 1.28125 -0.53125q0.734375 0 1.265625 0.53125q0.53125 0.53125 0.53125 1.265625zm-3.25 5.78125q0 -0.59375 0.421875 -1.015625q0.421875 -0.421875 1.03125 -0.421875q0.59375 0 1.015625 0.421875q0.421875 0.421875 0.421875 1.015625l0 17.34375q0 0.609375 -0.421875 1.03125q-0.421875 0.421875 -1.015625 0.421875q-0.609375 0 -1.03125 -0.421875q-0.421875 -0.421875 -0.421875 -1.03125l0 -17.34375zm7.3112793 0q0 -0.59375 0.421875 -1.015625q0.421875 -0.421875 1.015625 -0.421875q0.59375 0 1.015625 0.421875q0.4375 0.421875 0.4375 1.015625l0 1.1875q2.703125 -2.625 6.5 -2.625q3.875 0 6.625 2.765625q2.765625 2.75 2.765625 6.625l0 9.390625q0 0.609375 -0.421875 1.03125q-0.421875 0.421875 -1.015625 0.421875q-0.609375 0 -1.03125 -0.421875q-0.421875 -0.421875 -0.421875 -1.03125l0 -9.390625q0 -2.6875 -1.90625 -4.59375q-1.90625 -1.90625 -4.59375 -1.90625q-2.703125 0 -4.609375 1.90625q-1.890625 1.90625 -1.890625 4.59375l0 9.390625q0 0.609375 -0.4375 1.03125q-0.421875 0.421875 -1.015625 0.421875q-0.59375 0 -1.015625 -0.421875q-0.421875 -0.421875 -0.421875 -1.03125l0 -17.34375zm31.981323 1.453125q-3.0 0 -5.109375 2.125q-2.109375 2.109375 -2.109375 5.09375q0 3.0 2.109375 5.125q2.109375 2.109375 5.109375 2.109375q3.0 0 5.109375 -2.109375q2.125 -2.125 2.125 -5.125q0 -2.984375 -2.125 -5.09375q-2.109375 -2.125 -5.109375 -2.125zm7.234375 14.3125q-0.046875 0.03125 -0.078125 0.0625q-2.96875 2.96875 -7.15625 2.96875q-4.1875 0 -7.15625 -2.953125q-2.953125 -2.96875 -2.953125 -7.171875q0 -4.1875 2.953125 -7.140625q2.96875 -2.96875 7.15625 -2.96875q4.1875 0 7.15625 2.96875q2.96875 2.953125 2.96875 7.140625l0 10.125q0 3.15625 -2.28125 5.5q-3.1875 3.171875 -7.6875 3.171875q-4.484375 0 -7.65625 -3.171875q-1.171875 -1.15625 -1.90625 -2.515625q-0.21875 -0.328125 -0.21875 -0.765625q0 -0.59375 0.421875 -1.015625q0.421875 -0.421875 1.015625 -0.421875q0.59375 0 1.03125 0.40625q0.1875 0.203125 0.3125 0.4375q0.53125 0.984375 1.390625 1.828125q2.328125 2.328125 5.609375 2.328125q3.296875 0 5.625 -2.328125q1.453125 -1.734375 1.453125 -3.453125l0 -3.03125zm43.60327 -8.53125q-0.390625 -2.078125 -1.984375 -3.671875q-2.109375 -2.109375 -5.109375 -2.109375q-3.0 0 -5.109375 2.109375q-1.59375 1.59375 -1.984375 3.671875l14.1875 0zm-1.53125 6.640625q0.59375 0 1.015625 0.4375q0.4375 0.421875 0.4375 1.015625q0 0.59375 -0.421875 1.03125q-2.796875 2.4375 -6.59375 2.4375q-4.1875 0 -7.15625 -2.953125q-2.953125 -2.96875 -2.953125 -7.171875q0 -4.1875 2.953125 -7.140625q2.96875 -2.96875 7.15625 -2.96875q4.1875 0 7.15625 2.96875q2.96875 2.953125 2.96875 7.140625q0 0.609375 -0.4375 1.03125q-0.421875 0.421875 -1.015625 0.421875l-15.765625 0q0.390625 2.078125 1.984375 3.671875q2.109375 2.109375 5.109375 2.109375q2.703125 0 4.65625 -1.71875q0.40625 -0.3125 0.90625 -0.3125zm7.658203 -13.875q0 -0.59375 0.421875 -1.015625q0.421875 -0.421875 1.015625 -0.421875q0.59375 0 1.015625 0.421875q0.4375 0.421875 0.4375 1.015625l0 1.1875q2.703125 -2.625 6.5 -2.625q3.875 0 6.625 2.765625q2.765625 2.75 2.765625 6.625l0 9.390625q0 0.609375 -0.421875 1.03125q-0.421875 0.421875 -1.015625 0.421875q-0.609375 0 -1.03125 -0.421875q-0.421875 -0.421875 -0.421875 -1.03125l0 -9.390625q0 -2.6875 -1.90625 -4.59375q-1.90625 -1.90625 -4.59375 -1.90625q-2.703125 0 -4.609375 1.90625q-1.890625 1.90625 -1.890625 4.59375l0 9.390625q0 0.609375 -0.4375 1.03125q-0.421875 0.421875 -1.015625 0.421875q-0.59375 0 -1.015625 -0.421875q-0.421875 -0.421875 -0.421875 -1.03125l0 -17.34375zm31.981323 1.453125q-3.0 0 -5.109375 2.125q-2.109375 2.109375 -2.109375 5.09375q0 3.0 2.109375 5.125q2.109375 2.109375 5.109375 2.109375q3.0 0 5.109375 -2.109375q2.125 -2.125 2.125 -5.125q0 -2.984375 -2.125 -5.09375q-2.109375 -2.125 -5.109375 -2.125zm7.234375 14.3125q-0.046875 0.03125 -0.078125 0.0625q-2.96875 2.96875 -7.15625 2.96875q-4.1875 0 -7.15625 -2.953125q-2.953125 -2.96875 -2.953125 -7.171875q0 -4.1875 2.953125 -7.140625q2.96875 -2.96875 7.15625 -2.96875q4.1875 0 7.15625 2.96875q2.96875 2.953125 2.96875 7.140625l0 10.125q0 3.15625 -2.28125 5.5q-3.1875 3.171875 -7.6875 3.171875q-4.484375 0 -7.65625 -3.171875q-1.171875 -1.15625 -1.90625 -2.515625q-0.21875 -0.328125 -0.21875 -0.765625q0 -0.59375 0.421875 -1.015625q0.421875 -0.421875 1.015625 -0.421875q0.59375 0 1.03125 0.40625q0.1875 0.203125 0.3125 0.4375q0.53125 0.984375 1.390625 1.828125q2.328125 2.328125 5.609375 2.328125q3.296875 0 5.625 -2.328125q1.453125 -1.734375 1.453125 -3.453125l0 -3.03125zm10.673828 -21.546875q0 0.75 -0.53125 1.28125q-0.53125 0.53125 -1.265625 0.53125q-0.75 0 -1.28125 -0.53125q-0.53125 -0.53125 -0.53125 -1.28125q0 -0.734375 0.53125 -1.265625q0.53125 -0.53125 1.28125 -0.53125q0.734375 0 1.265625 0.53125q0.53125 0.53125 0.53125 1.265625zm-3.25 5.78125q0 -0.59375 0.421875 -1.015625q0.421875 -0.421875 1.03125 -0.421875q0.59375 0 1.015625 0.421875q0.421875 0.421875 0.421875 1.015625l0 17.34375q0 0.609375 -0.421875 1.03125q-0.421875 0.421875 -1.015625 0.421875q-0.609375 0 -1.03125 -0.421875q-0.421875 -0.421875 -0.421875 -1.03125l0 -17.34375zm7.3112793 0q0 -0.59375 0.421875 -1.015625q0.421875 -0.421875 1.015625 -0.421875q0.59375 0 1.015625 0.421875q0.4375 0.421875 0.4375 1.015625l0 1.1875q2.703125 -2.625 6.5 -2.625q3.875 0 6.625 2.765625q2.765625 2.75 2.765625 6.625l0 9.390625q0 0.609375 -0.421875 1.03125q-0.421875 0.421875 -1.015625 0.421875q-0.609375 0 -1.03125 -0.421875q-0.421875 -0.421875 -0.421875 -1.03125l0 -9.390625q0 -2.6875 -1.90625 -4.59375q-1.90625 -1.90625 -4.59375 -1.90625q-2.703125 0 -4.609375 1.90625q-1.890625 1.90625 -1.890625 4.59375l0 9.390625q0 0.609375 -0.4375 1.03125q-0.421875 0.421875 -1.015625 0.421875q-0.59375 0 -1.015625 -0.421875q-0.421875 -0.421875 -0.421875 -1.03125l0 -17.34375zm39.075073 7.234375q-0.390625 -2.078125 -1.984375 -3.671875q-2.109375 -2.109375 -5.109375 -2.109375q-3.0 0 -5.109375 2.109375q-1.59375 1.59375 -1.984375 3.671875l14.1875 0zm-1.53125 6.640625q0.59375 0 1.015625 0.4375q0.4375 0.421875 0.4375 1.015625q0 0.59375 -0.421875 1.03125q-2.796875 2.4375 -6.59375 2.4375q-4.1875 0 -7.15625 -2.953125q-2.953125 -2.96875 -2.953125 -7.171875q0 -4.1875 2.953125 -7.140625q2.96875 -2.96875 7.15625 -2.96875q4.1875 0 7.15625 2.96875q2.96875 2.953125 2.96875 7.140625q0 0.609375 -0.4375 1.03125q-0.421875 0.421875 -1.015625 0.421875l-15.765625 0q0.390625 2.078125 1.984375 3.671875q2.109375 2.109375 5.109375 2.109375q2.703125 0 4.65625 -1.71875q0.40625 -0.3125 0.90625 -0.3125z" fill-rule="nonzero"></path><path fill="#000000" fill-opacity="0.0" d="m62.391075 126.808395l833.6063 0l0 313.10236l-833.6063 0z" fill-rule="nonzero"></path><path stroke="#999999" stroke-width="2.0" stroke-linejoin="round" stroke-linecap="butt" d="m62.391075 126.808395l833.6063 0l0 313.10236l-833.6063 0z" fill-rule="nonzero"></path></g></svg>

